<svg width="1440" height="80" viewBox="0 0 1440 80" fill="none" xmlns="http://www.w3.org/2000/svg">
<path d="M726.714 74.9916C724.907 66.5706 714.05 63.5409 704.477 60.8685C701.14 59.9363 697.988 59.0507 695.351 57.9709C684.525 53.5506 672.253 48.5399 665.364 36.5143C660.874 28.676 660.881 18.5148 665.372 10.6376C669.424 3.54496 676.267 -0.409195 684.363 0.0336073C699.21 0.779381 711.167 13.7061 720.901 39.5441C723.592 46.691 726.121 53.9701 728.413 61.1715C728.813 62.4222 729.428 63.7972 730.058 65.2188C731.35 68.132 732.68 71.154 732.903 74.0671L726.706 74.9838L726.714 74.9916ZM683.233 6.34937C676.128 6.34937 672.407 11.026 670.815 13.8149C667.417 19.7578 667.409 27.4252 670.8 33.337C676.613 43.4827 687.339 47.8563 697.711 52.0979C700.01 53.0379 702.993 53.8691 706.153 54.7547C711.151 56.1453 716.718 57.7067 721.5 60.1926C719.494 54.0556 717.325 47.8874 715.042 41.8047C706.292 18.5692 696.158 6.97862 684.056 6.36491L683.241 6.3416L683.233 6.34937Z" fill="#E0B000"/>
<path d="M734.519 74.9923L728.321 74.0756C728.544 71.1546 729.882 68.1327 731.174 65.2118C731.797 63.7979 732.412 62.4306 732.812 61.1799C735.134 53.9086 737.663 46.6296 740.324 39.5525C750.058 13.7146 762.014 0.787841 776.861 0.0420681C784.919 -0.377429 791.808 3.55342 795.86 10.6616C800.351 18.5388 800.351 28.6844 795.86 36.5228C788.956 48.5639 776.692 53.5668 765.874 57.9793C763.237 59.0591 760.084 59.937 756.747 60.8692C747.174 63.5493 736.318 66.579 734.503 75L734.519 74.9923ZM777.992 6.35007L777.176 6.37337C765.082 6.97931 754.948 18.5776 746.198 41.8131C743.93 47.8337 741.761 54.0096 739.739 60.1933C744.522 57.7074 750.089 56.146 755.086 54.7554C758.246 53.8698 761.23 53.0386 763.529 52.0986C773.893 47.8648 784.612 43.4911 790.432 33.3377C793.823 27.4337 793.823 19.7662 790.424 13.8233C788.841 11.0267 785.104 6.35007 777.992 6.35007Z" fill="#E0B000"/>
<path d="M0 77L1440 76.9999" stroke="#E0B000" stroke-width="6"/>
</svg>
